# xmcd CD database file
#
# Track frame offsets:
#	150
#	14672
#	26210
#	47102
#	64427
#	76507
#	96895
#	114900
#	143252
#	159627
#	172282
#
# Disc length: 2632 seconds
#
# Revision: 0
# Processed by: cddbd v1.4PL0 Copyright (c) Steve Scherf et al.
# Submitted via: CDex 1.40Release
#
DISCID=8e0a460b
DTITLE=Sunpie - Loup Garou
DYEAR=1994
DGENRE=Blues
TTITLE0=Loup Garou
TTITLE1=Eh Tout Quelqu'un
TTITLE2=Blues in the Morning
TTITLE3=It's All Right
TTITLE4=People Around the World
TTITLE5=Quit Kicking my Dog Around
TTITLE6=Memphis Underground
TTITLE7=Garbage Can Woman
TTITLE8=Louisiana Saturday Night
TTITLE9=Quand J'etais Jeune
TTITLE10=Santa Claus has the Bells
EXTD=YEAR: 1994 ID3G: 0
EXTT0=
EXTT1=
EXTT2=
EXTT3=
EXTT4=
EXTT5=
EXTT6=
EXTT7=
EXTT8=
EXTT9=
EXTT10=
PLAYORDER=
